<svg width="59" height="41" viewBox="0 0 59 41" fill="none" xmlns="http://www.w3.org/2000/svg">
<path d="M33.8385 10.7734C34.806 9.80363 35.4035 8.46622 35.4035 6.98882C35.4035 4.02945 33.0042 1.63008 30.0448 1.63008C28.1736 1.63008 26.5288 2.59074 25.5705 4.04311C25.3155 4.29807 3.98528 30.5886 3.78609 30.8903C2.8186 31.86 2.22104 33.1974 2.22104 34.6737C2.22104 37.6331 4.62041 40.0324 7.57977 40.0324C9.451 40.0324 11.0957 39.0718 12.0541 37.6194C12.3091 37.3645 33.6393 11.075 33.8385 10.7734Z" fill="black"/>
<path d="M46.1802 23.2471C47.1499 22.2774 47.7486 20.9377 47.7486 19.4591C47.7486 16.4998 45.3493 14.1004 42.3899 14.1004C40.5187 14.1004 38.8728 15.0611 37.9144 16.5157C37.6595 16.7729 26.456 30.5818 26.2557 30.8868C25.2859 31.8566 24.6872 33.1963 24.6872 34.6748C24.6872 37.6342 27.0866 40.0336 30.0459 40.0336C31.9172 40.0336 33.563 39.0729 34.5214 37.6183C34.7764 37.361 45.9799 23.5522 46.1802 23.2471Z" fill="black"/>
<path d="M57.7247 8.21175C58.4001 5.33033 56.6117 2.44699 53.7303 1.77162C50.8489 1.09625 47.9656 2.88461 47.2902 5.76602C46.6148 8.64743 48.4032 11.5308 51.2846 12.2061C54.166 12.8815 57.0493 11.0932 57.7247 8.21175Z" fill="black"/>
<path d="M9.55744 11.9723C12.308 10.8799 13.6523 7.76458 12.5599 5.01398C11.4676 2.26338 8.35223 0.91911 5.60162 2.01148C2.85102 3.10385 1.50676 6.21919 2.59912 8.9698C3.69149 11.7204 6.80684 13.0647 9.55744 11.9723Z" fill="black"/>
</svg>
